# 3ds Max Wavefront OBJ Exporter v0.97b - (c)2007 guruware
# File Created: 16.10.2013 12:55:52

#
# object default
#

v  -0.4478 -1.8329 3.5454
v  0.3265 -1.0964 3.6783
v  0.2767 -0.5447 2.8803
v  -1.8180 0.4637 -0.9334
v  -2.8565 -0.3572 -1.0979
v  -2.1715 1.1558 -0.2369
v  1.7927 1.2333 1.7608
v  0.9066 0.8263 2.3803
v  1.9105 0.7049 2.3342
v  3.2449 -2.0255 -1.1458
v  3.2224 -1.1895 -1.1230
v  4.1768 -2.4158 0.4339
v  -3.9060 -2.3554 -0.1671
v  -3.1042 -2.1244 -1.0355
v  -2.5979 -3.1898 -0.0471
v  0.8383 -4.5828 0.7422
v  1.6324 -4.5728 1.9459
v  -0.5809 -4.6266 1.0763
v  -3.2156 -3.0497 1.4434
v  -4.0576 -1.9710 2.0374
v  -4.4072 -1.8687 0.5481
v  -3.8610 1.2433 3.5001
v  -3.6671 2.4987 2.6969
v  -4.5657 1.9934 2.5249
v  1.5538 0.7773 -0.7763
v  0.6878 -0.0497 -1.3915
v  -0.9242 0.7993 -0.3838
v  1.2846 1.4220 1.1134
v  -0.5356 1.0304 0.3544
v  0.9171 1.2376 1.8164
v  -1.7492 -4.1660 -0.6597
v  -0.7105 -3.8701 -1.4500
v  -0.1987 -4.0643 -1.7315
v  1.6624 -2.2010 -2.1166
v  2.4570 -3.5129 3.1040
v  1.7385 -2.2090 3.6610
v  1.0348 -3.7063 3.5539
v  2.6833 0.9676 1.2598
v  3.0804 0.2766 2.0520
v  3.6371 -0.0772 1.1703
v  -3.9003 -0.9472 -0.6780
v  -3.6839 2.9324 0.2248
v  -2.3700 2.9293 0.8856
v  -2.9987 2.7760 -0.1839
v  -1.9519 -4.8972 0.4597
v  -1.4410 -4.8345 2.5732
v  -2.8373 -4.8539 1.2758
v  -1.2847 -2.8783 2.7463
v  -2.6372 -2.3400 2.7104
v  -2.1820 -2.8848 2.3121
v  -2.7684 2.9476 0.2721
v  -0.2149 4.8972 -0.8358
v  0.2033 4.7524 -1.7107
v  -2.4716 1.8417 2.0863
v  -1.9570 0.5657 2.0343
v  -1.6514 1.2819 0.6058
v  3.3449 -3.7097 -0.3799
v  4.7466 -3.8749 0.7856
v  2.4447 -4.8151 -0.0319
v  3.7433 -3.1270 1.9867
v  3.6239 -0.9961 2.2077
v  -1.6062 -1.4276 2.8012
v  -2.0575 -1.5021 3.0022
v  -2.8240 0.9355 2.8233
v  -3.4744 0.6073 3.5039
v  -4.9549 0.8552 1.5645
v  -4.6675 1.5511 0.4658
v  -4.7885 0.4997 0.6002
v  -4.1837 0.0389 0.0874
v  -4.2121 1.1889 -0.2304
v  -2.3967 -1.8254 -1.3146
v  -0.7914 -0.2471 -1.3516
v  -1.1732 -1.8162 -1.3661
v  -0.2732 -1.8209 -2.4425
v  0.0553 -3.2902 -2.2021
v  1.8289 -4.7215 -1.3890
v  0.6395 -4.0489 -1.8659
v  1.2155 -2.9262 -2.1467
v  0.9759 -4.5458 -0.8137
v  -1.3209 -4.5767 -0.4062
v  -3.6005 2.1542 -0.4424
v  -3.8508 2.7855 -0.0570
v  -3.4988 2.6621 -2.6955
v  -3.1460 3.5137 -1.1726
v  -2.7754 -4.2581 2.8432
v  -3.1108 -4.7261 2.5674
v  -2.1337 -2.6880 -0.7883
v  -2.1571 1.9539 0.1754
v  -0.3703 3.2293 -0.0797
v  -2.0877 2.6497 0.8250
v  -1.3214 3.2963 -0.7574
v  4.0694 -1.1435 0.5266
v  3.3009 -0.4524 -0.7455
v  3.2938 0.3361 0.1052
v  2.2823 -0.4947 -1.3442
v  -0.5839 -1.0499 2.9747
v  -0.8990 -1.7034 2.7551
v  -1.3144 -4.2661 2.7555
v  -3.8310 -1.3405 2.5307
v  -3.6981 -0.2506 2.4148
v  -4.4537 -0.0325 0.9244
v  -1.6704 -0.2486 2.6973
v  -3.1161 -0.0095 2.4995
v  -2.9583 -1.2330 2.9700
v  1.2931 -0.5118 2.9274
v  4.5999 -3.5804 1.7866
v  3.8249 -3.9487 2.1293
v  4.2408 -4.2667 1.2603
v  2.5618 -4.7901 1.6306
v  1.9824 -4.8140 2.0008
v  1.1146 -4.7982 0.6418
v  -4.7598 0.5061 1.9524
v  -4.8674 0.7692 2.6672
v  -0.7335 -1.0565 -1.5588
v  0.6598 -0.6015 -1.4923
v  0.2477 -1.1889 -2.3025
v  1.9675 -0.7729 -1.4364
v  1.9567 -1.3129 -1.8997
v  4.8822 -3.2350 0.2708
v  4.5977 -2.4121 1.4077
v  -3.2807 3.1280 -3.4103
v  -3.8581 3.0496 -1.2186
v  -2.8031 3.7476 -3.7880
v  0.2620 -4.0168 3.1628
v  -0.7140 -3.6082 2.4123
v  -0.3870 -4.6817 3.5532
v  2.2878 -4.7383 2.6934
v  -2.7053 2.8400 2.0753
v  2.4952 -4.1013 -1.2065
v  2.2490 -3.5017 -1.7571
v  3.6797 -2.5326 -0.6307
v  -1.8637 -3.6264 2.4876
v  -2.1075 -3.9178 1.2025
v  -3.0355 -4.2703 2.2353
v  1.4222 -1.5406 3.7447
v  2.6735 -0.3954 2.7581
v  3.4591 -2.2847 2.5241
v  -1.0344 -3.7098 -0.5961
v  -1.9830 -4.8744 -0.8610
v  -1.2102 -4.8778 -1.9047
v  -4.7283 2.5286 0.9764
v  -4.6125 -0.9833 1.4438
v  -3.4346 0.3523 -0.4621
v  2.3410 0.8395 -0.3301
v  3.3554 -3.8487 2.0934
v  0.7134 -2.3385 3.8224
v  0.0709 -3.0854 3.4491
v  -3.3734 -4.3407 0.5316
v  -3.5630 -4.7676 0.1313
v  0.8213 -1.6410 -2.3681
v  0.1973 3.3901 -0.5993
v  -0.1834 4.4514 -0.9403
v  -1.2668 3.3103 0.0936
v  -1.1532 4.0686 0.0425
v  -4.5270 0.2006 2.7852
v  2.5729 -1.7600 3.2868
v  0.5380 4.0665 -1.7114
v  -4.7220 1.6456 1.3020
v  4.9548 -2.8039 1.3983
v  2.8437 -4.8323 0.9052
v  1.7780 1.3375 0.2842
v  -2.5388 -3.4333 0.3630
v  -2.4335 -4.1106 -0.3475
v  4.8930 -2.5067 0.6576
v  -2.9276 2.1331 -0.3900
v  -2.8979 4.3974 -3.8224
v  -3.7122 4.4880 -3.3503
v  -0.8976 -0.4273 2.7686
v  1.8390 -4.8569 -0.8401
v  -0.8242 0.6127 1.9649
v  -4.3122 -1.1843 -0.2294
v  2.1439 -4.0860 2.8707
v  -3.3669 4.6275 -3.4739
v  -1.0357 -4.8692 -1.2752
# 174 vertices

vn -0.6450 0.0209 0.7639
vn -0.2506 0.5200 0.8166
vn -0.1437 0.5344 0.8329
vn -0.0753 0.5887 -0.8048
vn -0.3048 0.2772 -0.9112
vn 0.2699 0.5421 -0.7958
vn 0.2461 0.8895 0.3850
vn -0.0574 0.6310 0.7737
vn 0.2287 0.6056 0.7622
vn 0.7024 0.0030 -0.7117
vn 0.6873 0.1753 -0.7049
vn 0.7904 0.4511 -0.4145
vn -0.6866 -0.5982 -0.4131
vn -0.4091 -0.3978 -0.8212
vn -0.7199 -0.5363 -0.4406
vn -0.2083 -0.9777 0.0255
vn -0.3472 -0.8769 -0.3326
vn 0.1009 -0.9930 -0.0610
vn -0.4655 -0.8492 0.2494
vn -0.7301 -0.4837 0.4826
vn -0.9048 -0.4162 -0.0899
vn -0.1002 0.2400 0.9656
vn -0.0805 0.7523 0.6538
vn -0.7524 0.4905 0.4398
vn 0.1080 0.7297 -0.6752
vn -0.0107 0.4339 -0.9009
vn 0.0699 0.8419 -0.5350
vn 0.0006 0.9989 0.0477
vn -0.0145 0.9945 -0.1040
vn -0.1390 0.9119 0.3862
vn -0.4526 0.3239 -0.8308
vn -0.6911 -0.1252 -0.7119
vn -0.2391 -0.1474 -0.9598
vn 0.3745 -0.0163 -0.9271
vn 0.5010 -0.3243 0.8024
vn 0.3359 -0.0855 0.9380
vn 0.0364 -0.5002 0.8651
vn 0.5477 0.8267 0.1288
vn 0.6352 0.5682 0.5232
vn 0.8794 0.4575 0.1321
vn -0.6235 0.0690 -0.7787
vn -0.2298 0.9682 0.0991
vn 0.1815 0.8897 0.4190
vn 0.5368 0.8124 -0.2275
vn 0.0988 -0.9949 -0.0178
vn -0.0991 -0.8781 0.4680
vn -0.7149 -0.6771 0.1744
vn 0.0679 -0.1382 0.9881
vn -0.3114 -0.5004 0.8078
vn -0.5182 -0.6002 0.6092
vn -0.8532 0.4260 0.3010
vn 0.1649 0.9041 0.3942
vn 0.2894 0.6861 -0.6675
vn 0.8225 0.2450 0.5134
vn 0.3809 0.5477 0.7449
vn 0.5502 0.8349 0.0144
vn 0.6468 -0.4356 -0.6260
vn 0.7758 -0.6052 -0.1785
vn 0.3208 -0.9227 -0.2139
vn 0.5750 0.1128 0.8103
vn 0.8280 0.2212 0.5152
vn 0.1855 0.0316 0.9821
vn 0.1128 -0.0114 0.9935
vn 0.6764 0.0325 0.7358
vn 0.2485 -0.3271 0.9117
vn -0.9967 -0.0810 -0.0083
vn -0.8993 0.2419 -0.3644
vn -0.8862 -0.2614 -0.3824
vn -0.8158 -0.0224 -0.5779
vn -0.6459 -0.0223 -0.7631
vn -0.1637 -0.2160 -0.9626
vn -0.0874 0.3934 -0.9152
vn -0.4499 -0.1223 -0.8847
vn -0.4224 0.0679 -0.9039
vn -0.2606 -0.2697 -0.9270
vn 0.3385 -0.7145 -0.6123
vn 0.0138 -0.5055 -0.8627
vn 0.1841 -0.2021 -0.9619
vn -0.1700 -0.8735 0.4561
vn 0.4500 -0.8643 0.2245
vn -0.5599 -0.3215 -0.7637
vn -0.9040 0.3807 -0.1946
vn -0.5055 -0.6932 -0.5138
vn 0.5587 0.7584 0.3358
vn -0.4358 0.2860 0.8534
vn -0.7461 -0.4987 0.4411
vn -0.2557 -0.4822 -0.8379
vn 0.8771 -0.0517 -0.4775
vn 0.6095 0.1285 0.7823
vn 0.8021 -0.0032 0.5972
vn -0.4310 -0.1692 -0.8863
vn 0.9854 0.1689 0.0236
vn 0.6976 0.3919 -0.5998
vn 0.7295 0.6267 -0.2738
vn 0.2864 0.4465 -0.8477
vn -0.2954 0.2889 0.9107
vn -0.3776 -0.1350 0.9161
vn -0.2275 0.1387 0.9639
vn -0.6406 -0.0816 0.7636
vn -0.5179 -0.2704 0.8115
vn -0.9454 -0.3245 -0.0311
vn 0.0180 0.4224 0.9062
vn 0.1437 -0.1184 0.9825
vn -0.2371 0.0166 0.9713
vn 0.0460 0.5477 0.8354
vn 0.6854 -0.2159 0.6954
vn 0.2669 -0.3543 0.8962
vn 0.5289 -0.8348 0.1528
vn 0.2501 -0.9511 0.1811
vn -0.0727 -0.9974 0.0033
vn -0.4208 -0.9072 -0.0030
vn -0.7973 -0.6016 0.0491
vn -0.9019 -0.1063 0.4188
vn -0.4974 0.3457 -0.7957
vn 0.0285 0.4532 -0.8910
vn -0.0322 0.6009 -0.7987
vn -0.0645 0.5005 -0.8633
vn 0.3335 0.3479 -0.8762
vn 0.7599 -0.0697 -0.6463
vn 0.1608 0.8516 0.4989
vn -0.2266 -0.7189 -0.6571
vn -0.9223 -0.3731 -0.1006
vn 0.6000 -0.0061 -0.8000
vn -0.1660 -0.0054 0.9861
vn -0.1760 0.1174 0.9774
vn -0.1749 -0.3357 0.9256
vn 0.3835 -0.6961 0.6069
vn 0.4282 0.7615 0.4866
vn 0.6768 -0.4852 -0.5536
vn 0.4688 -0.2514 -0.8468
vn 0.8471 -0.0577 -0.5283
vn -0.5755 0.2903 0.7645
vn -0.9383 0.3094 0.1548
vn -0.8416 0.5365 -0.0619
vn 0.1961 0.2761 0.9409
vn 0.4827 0.3764 0.7908
vn 0.7446 -0.0572 0.6651
vn -0.5658 0.1960 -0.8009
vn -0.5233 -0.6075 -0.5976
vn -0.4170 -0.3911 -0.8205
vn -0.8486 0.4792 -0.2242
vn -0.9521 0.0826 0.2945
vn -0.3562 0.2132 -0.9098
vn 0.4376 0.7506 -0.4950
vn 0.3223 -0.2973 0.8987
vn -0.0745 -0.0942 0.9928
vn -0.5091 -0.2771 0.8149
vn -0.7904 0.5734 0.2155
vn -0.8934 -0.3370 -0.2969
vn 0.2012 0.2281 -0.9526
vn 0.8517 -0.3593 0.3815
vn 0.6983 0.0819 0.7111
vn 0.5019 0.3045 0.8095
vn 0.1406 0.6292 0.7645
vn -0.5722 -0.6878 0.4467
vn 0.5319 0.0330 0.8462
vn 0.7724 -0.1282 -0.6220
vn -0.9768 0.2010 -0.0743
vn 0.8547 0.2132 0.4734
vn 0.2376 -0.9712 -0.0161
vn 0.1865 0.9531 -0.2386
vn -0.8546 -0.5162 0.0567
vn -0.6252 0.3714 -0.6864
vn 0.6957 0.6368 -0.3324
vn 0.6011 -0.1433 -0.7862
vn 0.6960 0.4434 -0.5647
vn -0.8004 0.5353 -0.2699
vn -0.0958 0.3705 0.9239
vn 0.0924 -0.9913 -0.0937
vn -0.1068 0.8150 0.5696
vn -0.8708 -0.0513 -0.4890
vn 0.3573 -0.3902 0.8486
vn 0.1160 0.9566 -0.2674
vn 0.0768 -0.9869 0.1419
# 174 vertex normals

vt 0.4549 0.0367 0.3130
vt 0.5329 0.0193 0.3882
vt 0.5279 0.1236 0.4444
vt 0.3167 0.6220 0.5473
vt 0.2120 0.6435 0.4636
vt 0.2811 0.5310 0.6179
vt 0.6807 0.2699 0.6258
vt 0.5914 0.1890 0.5843
vt 0.6926 0.1950 0.5719
vt 0.8271 0.6497 0.2934
vt 0.8249 0.6468 0.3787
vt 0.9211 0.4433 0.2536
vt 0.1062 0.5218 0.2598
vt 0.1871 0.6353 0.2833
vt 0.2381 0.5062 0.1747
vt 0.5845 0.4030 0.0326
vt 0.6646 0.2457 0.0336
vt 0.4414 0.3594 0.0281
vt 0.1758 0.3114 0.1889
vt 0.0910 0.2338 0.2990
vt 0.0557 0.4284 0.3094
vt 0.1108 0.0426 0.6268
vt 0.1303 0.1476 0.7549
vt 0.0397 0.1701 0.7033
vt 0.6566 0.6014 0.5793
vt 0.5693 0.6818 0.4949
vt 0.4068 0.5502 0.5815
vt 0.6295 0.3545 0.6450
vt 0.4460 0.4537 0.6051
vt 0.5925 0.2626 0.6262
vt 0.3237 0.5862 0.0751
vt 0.4284 0.6895 0.1053
vt 0.4800 0.7263 0.0855
vt 0.6676 0.7766 0.2755
vt 0.7477 0.0944 0.1417
vt 0.6753 0.0216 0.2747
vt 0.6043 0.0356 0.1220
vt 0.7705 0.3354 0.5987
vt 0.8105 0.2318 0.5282
vt 0.8667 0.3471 0.4921
vt 0.1068 0.5886 0.4034
vt 0.1286 0.4706 0.7991
vt 0.2611 0.3843 0.7988
vt 0.1977 0.5240 0.7831
vt 0.3032 0.4399 0.0005
vt 0.3547 0.1637 0.0069
vt 0.2140 0.3333 0.0049
vt 0.3705 0.1411 0.2064
vt 0.2341 0.1458 0.2613
vt 0.2800 0.1979 0.2058
vt 0.2209 0.4644 0.8006
vt 0.4783 0.6092 0.9995
vt 0.5205 0.7236 0.9847
vt 0.2508 0.2274 0.6878
vt 0.3027 0.2342 0.5577
vt 0.3335 0.4208 0.6308
vt 0.8372 0.5496 0.1216
vt 0.9785 0.3973 0.1048
vt 0.7465 0.5042 0.0089
vt 0.8774 0.2404 0.1811
vt 0.8653 0.2115 0.3984
vt 0.3381 0.1340 0.3544
vt 0.2926 0.1077 0.3468
vt 0.2153 0.1311 0.5954
vt 0.1498 0.0421 0.5619
vt 0.0005 0.2956 0.5872
vt 0.0295 0.4391 0.6582
vt 0.0173 0.4216 0.5510
vt 0.0782 0.4886 0.5040
vt 0.0754 0.5301 0.6213
vt 0.2584 0.6718 0.3138
vt 0.4202 0.6766 0.4748
vt 0.3817 0.6785 0.3148
vt 0.4725 0.8192 0.3143
vt 0.5056 0.7878 0.1644
vt 0.6844 0.6815 0.0184
vt 0.5645 0.7438 0.0870
vt 0.6225 0.7805 0.2015
vt 0.5984 0.6063 0.0363
vt 0.3668 0.5531 0.0332
vt 0.1370 0.5578 0.7197
vt 0.1118 0.5074 0.7841
vt 0.1473 0.8522 0.7715
vt 0.1829 0.6532 0.8584
vt 0.2202 0.1285 0.0657
vt 0.1864 0.1645 0.0180
vt 0.2849 0.6030 0.2258
vt 0.2825 0.4771 0.6993
vt 0.4627 0.5104 0.8294
vt 0.2895 0.3922 0.7703
vt 0.3668 0.5990 0.8362
vt 0.9102 0.4312 0.3834
vt 0.8328 0.5974 0.4539
vt 0.8321 0.4863 0.5343
vt 0.7301 0.6757 0.4495
vt 0.4411 0.1113 0.3929
vt 0.4094 0.1400 0.3263
vt 0.3675 0.1399 0.0649
vt 0.1138 0.1693 0.3633
vt 0.1272 0.1844 0.4744
vt 0.0510 0.3792 0.4967
vt 0.3316 0.1475 0.4746
vt 0.1859 0.1734 0.4990
vt 0.2018 0.1119 0.3742
vt 0.6304 0.1175 0.4478
vt 0.9637 0.2665 0.1348
vt 0.8856 0.2218 0.0972
vt 0.9275 0.3353 0.0648
vt 0.7583 0.2869 0.0114
vt 0.6998 0.2385 0.0090
vt 0.6124 0.4161 0.0106
vt 0.0202 0.2449 0.5516
vt 0.0093 0.1515 0.5785
vt 0.4261 0.7037 0.3922
vt 0.5665 0.6950 0.4386
vt 0.5250 0.8009 0.3787
vt 0.6983 0.6877 0.4212
vt 0.6973 0.7482 0.3661
vt 0.9922 0.4646 0.1700
vt 0.9635 0.3160 0.2540
vt 0.1693 0.9456 0.8190
vt 0.1111 0.6592 0.8111
vt 0.2174 0.9950 0.8822
vt 0.5264 0.0867 0.0903
vt 0.4280 0.1848 0.1320
vt 0.4610 0.0357 0.0225
vt 0.7306 0.1480 0.0167
vt 0.2273 0.2288 0.7897
vt 0.7515 0.6577 0.0817
vt 0.7267 0.7296 0.1428
vt 0.8710 0.5824 0.2417
vt 0.3121 0.1749 0.1301
vt 0.2875 0.3429 0.1004
vt 0.1940 0.2079 0.0644
vt 0.6434 0.0107 0.3429
vt 0.7695 0.1396 0.4597
vt 0.8487 0.1702 0.2670
vt 0.3957 0.5779 0.1216
vt 0.3001 0.6125 0.0028
vt 0.3780 0.7489 0.0025
vt 0.0233 0.3724 0.7579
vt 0.0350 0.3113 0.3997
vt 0.1538 0.5604 0.5359
vt 0.7360 0.5431 0.5856
vt 0.8383 0.2264 0.1074
vt 0.5719 0.0005 0.2615
vt 0.5072 0.0493 0.1853
vt 0.1599 0.4305 0.0573
vt 0.1408 0.4828 0.0137
vt 0.5828 0.8095 0.3326
vt 0.5199 0.5783 0.8458
vt 0.4815 0.6229 0.9540
vt 0.3723 0.4878 0.8376
vt 0.3838 0.4944 0.9150
vt 0.0436 0.1360 0.5205
vt 0.7594 0.0705 0.3205
vt 0.5542 0.7236 0.9148
vt 0.0240 0.3299 0.6678
vt 0.9995 0.3173 0.2140
vt 0.7867 0.3817 0.0071
vt 0.6792 0.4629 0.6364
vt 0.2441 0.4526 0.1498
vt 0.2547 0.5454 0.0807
vt 0.9933 0.4141 0.2443
vt 0.2049 0.5510 0.7176
vt 0.2079 0.9995 0.9485
vt 0.1258 0.9378 0.9578
vt 0.4095 0.1382 0.4564
vt 0.6854 0.6098 0.0046
vt 0.4169 0.2432 0.5625
vt 0.0653 0.5300 0.3792
vt 0.7161 0.1249 0.0832
vt 0.1606 0.9539 0.9720
vt 0.3956 0.6666 0.0034
# 174 texture coords

g default
f 1/1/1 2/2/2 3/3/3 
f 4/4/4 5/5/5 6/6/6 
f 7/7/7 8/8/8 9/9/9 
f 10/10/10 11/11/11 12/12/12 
f 13/13/13 14/14/14 15/15/15 
f 16/16/16 17/17/17 18/18/18 
f 19/19/19 20/20/20 21/21/21 
f 22/22/22 23/23/23 24/24/24 
f 25/25/25 26/26/26 27/27/27 
f 28/28/28 29/29/29 30/30/30 
f 31/31/31 32/32/32 33/33/33 
f 11/11/11 10/10/10 34/34/34 
f 35/35/35 36/36/36 37/37/37 
f 38/38/38 39/39/39 40/40/40 
f 14/14/14 41/41/41 5/5/5 
f 42/42/42 43/43/43 44/44/44 
f 45/45/45 46/46/46 47/47/47 
f 48/48/48 49/49/49 50/50/50 
f 51/51/51 52/52/52 53/53/53 
f 54/54/54 55/55/55 56/56/56 
f 57/57/57 58/58/58 59/59/59 
f 60/60/60 12/12/12 61/61/61 
f 48/48/48 62/62/62 63/63/63 
f 64/64/64 54/54/54 65/65/65 
f 66/66/66 67/67/67 68/68/68 
f 69/69/69 67/67/67 70/70/70 
f 71/71/71 5/5/5 72/72/72 
f 73/73/73 74/74/74 75/75/75 
f 76/76/76 77/77/77 78/78/78 
f 79/79/79 18/18/18 80/80/80 
f 81/81/81 82/82/82 83/83/83 
f 84/84/84 42/42/42 44/44/44 
f 85/85/85 86/86/86 46/46/46 
f 15/15/15 87/87/87 31/31/31 
f 88/88/88 89/89/89 90/90/90 
f 91/91/91 51/51/51 53/53/53 
f 92/92/92 93/93/93 94/94/94 
f 95/95/95 26/26/26 25/25/25 
f 1/1/1 96/96/96 97/97/97 
f 85/85/85 46/46/46 98/98/98 
f 99/99/99 100/100/100 101/101/101 
f 102/102/102 103/103/103 104/104/104 
f 105/105/105 9/9/9 8/8/8 
f 103/103/103 102/102/102 55/55/55 
f 106/106/106 107/107/107 108/108/108 
f 109/109/109 110/110/110 111/111/111 
f 100/100/100 112/112/112 101/101/101 
f 22/22/22 24/24/24 113/113/113 
f 114/114/114 115/115/115 116/116/116 
f 117/117/117 95/95/95 118/118/118 
f 58/58/58 57/57/57 119/119/119 
f 12/12/12 60/60/60 120/120/120 
f 121/121/121 82/82/82 122/122/122 
f 84/84/84 44/44/44 123/123/123 
f 124/124/124 125/125/125 126/126/126 
f 124/124/124 126/126/126 127/127/127 
f 90/90/90 54/54/54 88/88/88 
f 42/42/42 128/128/128 43/43/43 
f 129/129/129 57/57/57 59/59/59 
f 130/130/130 131/131/131 129/129/129 
f 19/19/19 50/50/50 49/49/49 
f 132/132/132 133/133/133 134/134/134 
f 135/135/135 136/136/136 105/105/105 
f 60/60/60 61/61/61 137/137/137 
f 27/27/27 4/4/4 6/6/6 
f 88/88/88 54/54/54 56/56/56 
f 31/31/31 87/87/87 138/138/138 
f 75/75/75 32/32/32 73/73/73 
f 80/80/80 18/18/18 45/45/45 
f 139/139/139 31/31/31 140/140/140 
f 49/49/49 20/20/20 19/19/19 
f 104/104/104 100/100/100 99/99/99 
f 67/67/67 82/82/82 70/70/70 
f 42/42/42 141/141/141 23/23/23 
f 20/20/20 142/142/142 21/21/21 
f 69/69/69 143/143/143 41/41/41 
f 144/144/144 95/95/95 25/25/25 
f 28/28/28 30/30/30 7/7/7 
f 145/145/145 137/137/137 35/35/35 
f 127/127/127 109/109/109 145/145/145 
f 12/12/12 40/40/40 61/61/61 
f 11/11/11 92/92/92 12/12/12 
f 36/36/36 146/146/146 37/37/37 
f 147/147/147 1/1/1 97/97/97 
f 148/148/148 47/47/47 133/133/133 
f 139/139/139 47/47/47 149/149/149 
f 11/11/11 34/34/34 118/118/118 
f 78/78/78 75/75/75 150/150/150 
f 151/151/151 152/152/152 153/153/153 
f 43/43/43 154/154/154 51/51/51 
f 69/69/69 70/70/70 143/143/143 
f 143/143/143 81/81/81 6/6/6 
f 31/31/31 33/33/33 140/140/140 
f 76/76/76 140/140/140 33/33/33 
f 103/103/103 65/65/65 155/155/155 
f 103/103/103 64/64/64 65/65/65 
f 36/36/36 35/35/35 137/137/137 
f 156/156/156 136/136/136 135/135/135 
f 151/151/151 88/88/88 157/157/157 
f 157/157/157 152/152/152 151/151/151 
f 158/158/158 66/66/66 24/24/24 
f 23/23/23 141/141/141 24/24/24 
f 106/106/106 108/108/108 58/58/58 
f 119/119/119 159/159/159 58/58/58 
f 138/138/138 87/87/87 73/73/73 
f 71/71/71 72/72/72 73/73/73 
f 160/160/160 58/58/58 108/108/108 
f 111/111/111 160/160/160 109/109/109 
f 161/161/161 38/38/38 144/144/144 
f 94/94/94 38/38/38 40/40/40 
f 133/133/133 50/50/50 162/162/162 
f 163/163/163 133/133/133 162/162/162 
f 119/119/119 57/57/57 12/12/12 
f 12/12/12 120/120/120 164/164/164 
f 123/123/123 44/44/44 165/165/165 
f 44/44/44 88/88/88 165/165/165 
f 166/166/166 121/121/121 167/167/167 
f 165/165/165 121/121/121 123/123/123 
f 9/9/9 39/39/39 7/7/7 
f 156/156/156 39/39/39 136/136/136 
f 97/97/97 96/96/96 62/62/62 
f 8/8/8 168/168/168 3/3/3 
f 76/76/76 169/169/169 140/140/140 
f 59/59/59 169/169/169 76/76/76 
f 6/6/6 56/56/56 27/27/27 
f 29/29/29 56/56/56 170/170/170 
f 29/29/29 170/170/170 30/30/30 
f 8/8/8 170/170/170 168/168/168 
f 46/46/46 126/126/126 98/98/98 
f 110/110/110 126/126/126 46/46/46 
f 13/13/13 41/41/41 14/14/14 
f 142/142/142 171/171/171 21/21/21 
f 113/113/113 24/24/24 66/66/66 
f 100/100/100 155/155/155 112/112/112 
f 150/150/150 116/116/116 115/115/115 
f 75/75/75 74/74/74 150/150/150 
f 98/98/98 48/48/48 132/132/132 
f 125/125/125 147/147/147 97/97/97 
f 15/15/15 19/19/19 13/13/13 
f 162/162/162 50/50/50 19/19/19 
f 127/127/127 172/172/172 124/124/124 
f 145/145/145 172/172/172 127/127/127 
f 26/26/26 72/72/72 27/27/27 
f 115/115/115 114/114/114 72/72/72 
f 29/29/29 161/161/161 25/25/25 
f 161/161/161 144/144/144 25/25/25 
f 56/56/56 6/6/6 88/88/88 
f 88/88/88 6/6/6 165/165/165 
f 148/148/148 133/133/133 163/163/163 
f 163/163/163 139/139/139 149/149/149 
f 129/129/129 131/131/131 57/57/57 
f 12/12/12 57/57/57 131/131/131 
f 98/98/98 132/132/132 85/85/85 
f 134/134/134 85/85/85 132/132/132 
f 167/167/167 42/42/42 84/84/84 
f 167/167/167 173/173/173 166/166/166 
f 81/81/81 165/165/165 6/6/6 
f 81/81/81 83/83/83 165/165/165 
f 59/59/59 111/111/111 169/169/169 
f 16/16/16 18/18/18 79/79/79 
f 147/147/147 37/37/37 146/146/146 
f 172/172/172 37/37/37 124/124/124 
f 128/128/128 23/23/23 65/65/65 
f 128/128/128 42/42/42 23/23/23 
f 48/48/48 63/63/63 49/49/49 
f 49/49/49 104/104/104 99/99/99 
f 95/95/95 11/11/11 118/118/118 
f 144/144/144 93/93/93 95/95/95 
f 101/101/101 112/112/112 68/68/68 
f 142/142/142 69/69/69 171/171/171 
f 106/106/106 60/60/60 107/107/107 
f 60/60/60 137/137/137 145/145/145 
f 120/120/120 60/60/60 106/106/106 
f 106/106/106 58/58/58 159/159/159 
f 170/170/170 56/56/56 55/55/55 
f 102/102/102 170/170/170 55/55/55 
f 45/45/45 47/47/47 139/139/139 
f 45/45/45 139/139/139 140/140/140 
f 14/14/14 87/87/87 15/15/15 
f 71/71/71 73/73/73 87/87/87 
f 110/110/110 46/46/46 17/17/17 
f 110/110/110 17/17/17 111/111/111 
f 86/86/86 85/85/85 134/134/134 
f 46/46/46 86/86/86 47/47/47 
f 5/5/5 143/143/143 6/6/6 
f 41/41/41 143/143/143 5/5/5 
f 20/20/20 99/99/99 142/142/142 
f 49/49/49 99/99/99 20/20/20 
f 78/78/78 150/150/150 34/34/34 
f 34/34/34 10/10/10 130/130/130 
f 105/105/105 2/2/2 135/135/135 
f 135/135/135 2/2/2 146/146/146 
f 158/158/158 141/141/141 82/82/82 
f 24/24/24 141/141/141 158/158/158 
f 132/132/132 50/50/50 133/133/133 
f 48/48/48 50/50/50 132/132/132 
f 169/169/169 174/174/174 140/140/140 
f 174/174/174 45/45/45 140/140/140 
f 76/76/76 33/33/33 77/77/77 
f 32/32/32 75/75/75 33/33/33 
f 105/105/105 8/8/8 3/3/3 
f 3/3/3 2/2/2 105/105/105 
f 44/44/44 91/91/91 88/88/88 
f 91/91/91 157/157/157 88/88/88 
f 114/114/114 74/74/74 73/73/73 
f 72/72/72 114/114/114 73/73/73 
f 53/53/53 157/157/157 91/91/91 
f 157/157/157 53/53/53 52/52/52 
f 29/29/29 25/25/25 27/27/27 
f 29/29/29 27/27/27 56/56/56 
f 122/122/122 82/82/82 167/167/167 
f 121/121/121 122/122/122 167/167/167 
f 54/54/54 128/128/128 65/65/65 
f 54/54/54 90/90/90 128/128/128 
f 26/26/26 95/95/95 117/117/117 
f 115/115/115 72/72/72 26/26/26 
f 2/2/2 1/1/1 146/146/146 
f 146/146/146 1/1/1 147/147/147 
f 137/137/137 61/61/61 156/156/156 
f 137/137/137 156/156/156 36/36/36 
f 65/65/65 23/23/23 22/22/22 
f 65/65/65 22/22/22 155/155/155 
f 82/82/82 42/42/42 167/167/167 
f 42/42/42 82/82/82 141/141/141 
f 164/164/164 119/119/119 12/12/12 
f 159/159/159 119/119/119 164/164/164 
f 92/92/92 40/40/40 12/12/12 
f 92/92/92 94/94/94 40/40/40 
f 18/18/18 46/46/46 45/45/45 
f 46/46/46 18/18/18 17/17/17 
f 13/13/13 19/19/19 21/21/21 
f 13/13/13 21/21/21 171/171/171 
f 125/125/125 124/124/124 147/147/147 
f 124/124/124 37/37/37 147/147/147 
f 35/35/35 37/37/37 172/172/172 
f 172/172/172 145/145/145 35/35/35 
f 13/13/13 171/171/171 41/41/41 
f 69/69/69 41/41/41 171/171/171 
f 32/32/32 138/138/138 73/73/73 
f 32/32/32 31/31/31 138/138/138 
f 62/62/62 48/48/48 97/97/97 
f 125/125/125 97/97/97 48/48/48 
f 91/91/91 44/44/44 51/51/51 
f 44/44/44 43/43/43 51/51/51 
f 152/152/152 157/157/157 52/52/52 
f 51/51/51 154/154/154 52/52/52 
f 169/169/169 79/79/79 174/174/174 
f 169/169/169 16/16/16 79/79/79 
f 113/113/113 112/112/112 155/155/155 
f 155/155/155 22/22/22 113/113/113 
f 43/43/43 128/128/128 90/90/90 
f 90/90/90 154/154/154 43/43/43 
f 29/29/29 28/28/28 161/161/161 
f 161/161/161 28/28/28 38/38/38 
f 7/7/7 39/39/39 38/38/38 
f 28/28/28 7/7/7 38/38/38 
f 156/156/156 61/61/61 39/39/39 
f 61/61/61 40/40/40 39/39/39 
f 102/102/102 63/63/63 62/62/62 
f 168/168/168 170/170/170 102/102/102 
f 69/69/69 101/101/101 68/68/68 
f 69/69/69 68/68/68 67/67/67 
f 64/64/64 55/55/55 54/54/54 
f 55/55/55 64/64/64 103/103/103 
f 92/92/92 11/11/11 93/93/93 
f 95/95/95 93/93/93 11/11/11 
f 98/98/98 125/125/125 48/48/48 
f 126/126/126 125/125/125 98/98/98 
f 165/165/165 83/83/83 121/121/121 
f 83/83/83 82/82/82 121/121/121 
f 146/146/146 36/36/36 135/135/135 
f 156/156/156 135/135/135 36/36/36 
f 136/136/136 9/9/9 105/105/105 
f 39/39/39 9/9/9 136/136/136 
f 94/94/94 144/144/144 38/38/38 
f 94/94/94 93/93/93 144/144/144 
f 5/5/5 71/71/71 14/14/14 
f 14/14/14 71/71/71 87/87/87 
f 149/149/149 47/47/47 148/148/148 
f 148/148/148 163/163/163 149/149/149 
f 63/63/63 102/102/102 104/104/104 
f 63/63/63 104/104/104 49/49/49 
f 127/127/127 126/126/126 110/110/110 
f 109/109/109 127/127/127 110/110/110 
f 160/160/160 59/59/59 58/58/58 
f 111/111/111 59/59/59 160/160/160 
f 118/118/118 150/150/150 115/115/115 
f 150/150/150 118/118/118 34/34/34 
f 163/163/163 15/15/15 31/31/31 
f 139/139/139 163/163/163 31/31/31 
f 86/86/86 134/134/134 47/47/47 
f 47/47/47 134/134/134 133/133/133 
f 15/15/15 162/162/162 19/19/19 
f 163/163/163 162/162/162 15/15/15 
f 164/164/164 120/120/120 159/159/159 
f 106/106/106 159/159/159 120/120/120 
f 113/113/113 66/66/66 112/112/112 
f 112/112/112 66/66/66 68/68/68 
f 99/99/99 101/101/101 142/142/142 
f 142/142/142 101/101/101 69/69/69 
f 130/130/130 78/78/78 34/34/34 
f 76/76/76 78/78/78 130/130/130 
f 131/131/131 130/130/130 10/10/10 
f 131/131/131 10/10/10 12/12/12 
f 115/115/115 117/117/117 118/118/118 
f 115/115/115 26/26/26 117/117/117 
f 166/166/166 173/173/173 123/123/123 
f 121/121/121 166/166/166 123/123/123 
f 70/70/70 81/81/81 143/143/143 
f 70/70/70 82/82/82 81/81/81 
f 129/129/129 76/76/76 130/130/130 
f 76/76/76 129/129/129 59/59/59 
f 158/158/158 82/82/82 67/67/67 
f 158/158/158 67/67/67 66/66/66 
f 103/103/103 155/155/155 100/100/100 
f 104/104/104 103/103/103 100/100/100 
f 169/169/169 111/111/111 16/16/16 
f 111/111/111 17/17/17 16/16/16 
f 154/154/154 90/90/90 153/153/153 
f 89/89/89 153/153/153 90/90/90 
f 1/1/1 3/3/3 96/96/96 
f 96/96/96 3/3/3 168/168/168 
f 116/116/116 74/74/74 114/114/114 
f 116/116/116 150/150/150 74/74/74 
f 8/8/8 30/30/30 170/170/170 
f 7/7/7 30/30/30 8/8/8 
f 5/5/5 4/4/4 72/72/72 
f 27/27/27 72/72/72 4/4/4 
f 79/79/79 80/80/80 174/174/174 
f 174/174/174 80/80/80 45/45/45 
f 108/108/108 107/107/107 109/109/109 
f 108/108/108 109/109/109 160/160/160 
f 75/75/75 78/78/78 77/77/77 
f 75/75/75 77/77/77 33/33/33 
f 151/151/151 89/89/89 88/88/88 
f 151/151/151 153/153/153 89/89/89 
f 109/109/109 107/107/107 145/145/145 
f 60/60/60 145/145/145 107/107/107 
f 152/152/152 154/154/154 153/153/153 
f 152/152/152 52/52/52 154/154/154 
f 62/62/62 168/168/168 102/102/102 
f 96/96/96 168/168/168 62/62/62 
f 173/173/173 167/167/167 84/84/84 
f 123/123/123 173/173/173 84/84/84 
# 344 faces

